<?xml version="1.0" standalone="no"?>
<!DOCTYPE svg PUBLIC "-//W3C//DTD SVG 20010904//EN"
 "http://www.w3.org/TR/2001/REC-SVG-20010904/DTD/svg10.dtd">
<svg version="1.0" xmlns="http://www.w3.org/2000/svg"
 width="1080.000000pt" height="1080.000000pt" viewBox="0 0 1080.000000 1080.000000"
 preserveAspectRatio="xMidYMid meet">
<metadata>
Created by potrace 1.16, written by Peter Selinger 2001-2019
</metadata>
<g transform="translate(0.000000,1080.000000) scale(0.100000,-0.100000)"
fill="#000000" stroke="none">
<path d="M2630 7203 c-270 -15 -536 -36 -540 -42 -3 -5 -77 -14 -165 -21 -87
-7 -166 -16 -175 -21 -8 -4 -77 -15 -152 -25 -76 -9 -138 -20 -138 -23 0 -4
-43 -15 -95 -25 -52 -10 -95 -21 -95 -25 0 -4 -29 -13 -65 -20 -36 -7 -65 -16
-65 -20 0 -4 -34 -15 -75 -26 -41 -10 -75 -21 -75 -25 0 -3 -16 -12 -35 -19
-49 -17 -46 -41 5 -41 22 0 40 4 40 8 0 5 34 17 75 27 41 11 75 22 75 26 0 3
37 14 83 24 45 10 85 22 88 26 3 5 34 14 70 21 35 6 66 14 69 18 3 4 64 16
135 26 72 10 132 22 135 25 3 4 97 15 210 24 113 10 207 20 210 25 5 8 103 14
465 31 291 14 280 14 470 1 157 -10 195 -16 195 -32 0 -5 7 -10 16 -12 13 -3
13 -6 -5 -27 -12 -13 -21 -27 -21 -31 0 -11 -294 -304 -325 -324 -14 -9 -45
-37 -68 -61 -23 -25 -47 -45 -54 -45 -7 0 -13 -5 -13 -12 0 -6 -49 -61 -110
-121 -60 -60 -110 -112 -110 -116 0 -5 -27 -35 -60 -67 -33 -32 -60 -62 -60
-66 0 -4 -70 -77 -155 -163 -85 -85 -155 -157 -155 -161 0 -4 -20 -27 -45 -53
-66 -67 -139 -150 -150 -170 -5 -10 -27 -33 -47 -52 -21 -19 -38 -38 -38 -44
0 -5 -11 -21 -25 -35 -44 -43 -85 -94 -85 -105 0 -6 -9 -16 -20 -23 -11 -7
-20 -18 -20 -25 0 -6 -18 -27 -40 -46 -22 -19 -40 -41 -40 -48 0 -7 -11 -20
-25 -29 -14 -9 -25 -22 -25 -28 0 -7 -18 -28 -40 -49 -22 -20 -40 -40 -40 -45
0 -5 -16 -24 -35 -43 -19 -19 -35 -37 -35 -42 0 -6 -34 -47 -97 -114 -13 -13
-23 -28 -23 -33 0 -5 -8 -15 -18 -22 -9 -7 -26 -26 -36 -43 -11 -16 -28 -36
-38 -43 -10 -7 -18 -20 -18 -28 0 -8 -7 -17 -15 -20 -8 -4 -15 -11 -15 -18 0
-6 -14 -27 -30 -46 -16 -19 -30 -40 -30 -47 0 -7 -9 -17 -20 -23 -11 -6 -20
-17 -20 -25 0 -8 -11 -22 -25 -31 -14 -9 -25 -22 -25 -30 0 -7 -6 -17 -13 -21
-8 -4 -22 -23 -32 -40 -11 -18 -23 -33 -27 -33 -3 0 -12 -16 -19 -35 -7 -19
-16 -35 -19 -35 -3 0 -14 -17 -25 -37 -11 -21 -27 -45 -35 -55 -26 -29 -34
-42 -55 -83 -11 -22 -25 -43 -32 -48 -7 -4 -15 -23 -19 -43 -3 -19 -15 -39
-25 -45 -11 -5 -19 -16 -19 -24 0 -8 -6 -18 -13 -22 -7 -4 -21 -28 -31 -52 -9
-24 -24 -50 -32 -58 -8 -9 -18 -28 -21 -44 -3 -16 -10 -29 -15 -29 -5 0 -7 -4
-4 -9 4 -5 2 -11 -3 -13 -15 -5 -45 -169 -37 -201 3 -15 14 -31 22 -34 19 -7
100 32 108 52 3 8 11 15 18 15 7 0 32 21 56 45 24 25 47 45 51 45 3 0 22 14
41 31 19 16 47 40 62 52 15 12 39 32 53 45 14 12 29 22 33 22 4 0 26 17 48 38
23 20 56 48 74 62 18 14 47 39 65 55 36 33 93 78 106 83 10 4 68 57 145 132
28 28 54 50 57 50 8 0 51 37 131 113 39 37 73 67 77 67 5 0 62 52 196 180 22
22 45 40 50 40 5 0 19 10 30 23 18 19 70 66 165 148 15 13 59 53 97 89 38 36
87 78 110 93 23 16 41 35 41 43 0 8 6 14 14 14 8 0 23 10 33 23 10 12 34 34
53 48 30 23 135 127 553 549 46 47 112 110 146 140 33 30 126 118 205 195 150
146 194 185 211 185 14 0 35 59 35 98 0 29 -3 32 -30 32 -23 0 -30 -5 -30 -19
0 -11 -6 -26 -13 -33 -8 -7 -16 -18 -18 -24 -10 -29 -68 -91 -242 -263 -598
-592 -782 -772 -834 -818 -32 -28 -83 -74 -113 -103 -30 -28 -78 -73 -107 -98
-29 -26 -83 -76 -121 -112 -38 -36 -81 -74 -96 -86 -14 -11 -61 -53 -104 -93
-93 -87 -177 -163 -215 -194 -15 -12 -46 -39 -68 -59 -22 -20 -44 -38 -48 -40
-10 -4 -114 -94 -146 -125 -12 -13 -27 -23 -33 -23 -6 0 -15 -6 -19 -14 -4 -8
-33 -34 -63 -57 -30 -24 -60 -48 -66 -54 -6 -5 -26 -21 -43 -35 -18 -14 -45
-36 -61 -50 -16 -14 -43 -36 -61 -50 -18 -14 -47 -37 -64 -52 -18 -16 -38 -28
-44 -28 -6 0 -11 -4 -11 -9 0 -4 -21 -25 -47 -45 -27 -20 -61 -46 -78 -58 -16
-13 -52 -44 -80 -70 -27 -26 -55 -48 -60 -48 -6 0 -16 -9 -23 -20 -7 -11 -18
-20 -25 -20 -7 0 -20 -9 -30 -20 -9 -11 -27 -20 -39 -20 -13 0 -18 3 -12 8 6
4 17 35 24 70 7 34 17 62 22 62 6 0 8 7 4 15 -3 8 -1 15 4 15 4 0 14 16 20 35
6 19 15 35 19 35 4 0 14 18 21 40 8 23 19 44 25 48 6 4 17 22 24 40 8 17 18
32 23 32 5 0 6 5 3 10 -3 6 -1 10 5 10 6 0 16 14 21 30 6 17 14 30 19 30 4 0
13 14 20 30 7 17 17 30 22 30 5 0 6 5 3 10 -3 6 -1 10 4 10 6 0 11 5 11 11 0
6 14 30 30 54 17 24 30 48 30 54 0 5 6 14 13 18 6 4 21 24 31 43 11 19 23 37
26 40 4 3 15 20 24 38 9 17 20 32 25 32 4 0 13 12 20 27 7 15 21 33 32 41 10
7 19 19 19 27 0 8 9 19 20 25 11 6 20 17 20 25 0 8 8 20 18 27 9 7 24 26 32
43 8 16 28 41 43 54 15 13 26 25 23 28 -4 4 33 49 87 103 15 15 27 31 27 35 0
11 116 149 178 212 23 23 42 47 42 51 0 5 12 20 28 34 30 27 85 95 91 112 2 6
12 17 23 24 10 7 18 18 18 24 0 6 7 18 15 27 43 48 54 60 62 76 10 18 67 83
148 169 28 30 86 94 130 142 44 49 164 174 267 279 103 104 195 200 203 212
22 31 365 373 374 373 4 0 53 44 107 98 55 53 135 130 177 169 42 40 77 77 77
82 0 6 9 16 21 24 24 17 40 97 20 97 -7 0 -19 6 -26 14 -35 35 -440 56 -745
39z"/>
<path d="M6664 6277 c-6 -7 -37 -34 -68 -62 -32 -27 -91 -81 -132 -120 -40
-38 -94 -88 -118 -110 -24 -22 -42 -43 -40 -46 8 -14 -31 -19 -142 -19 -63 0
-114 -4 -114 -9 0 -4 -134 -11 -297 -14 -299 -6 -574 -23 -583 -37 -3 -4 -14
-9 -25 -11 -11 -3 -21 -14 -23 -26 -3 -21 -1 -22 70 -16 40 3 75 9 78 14 6 8
273 29 379 29 37 0 71 4 76 9 11 10 513 28 505 17 -34 -41 -99 -112 -157 -172
-40 -41 -73 -77 -73 -81 0 -5 -19 -27 -43 -49 -39 -38 -56 -59 -119 -138 -13
-17 -33 -40 -45 -52 -13 -12 -23 -25 -23 -30 0 -4 -29 -36 -65 -71 -36 -35
-65 -66 -65 -69 0 -4 -16 -23 -35 -43 -19 -20 -34 -38 -33 -41 2 -3 -16 -24
-39 -46 -24 -23 -43 -45 -43 -49 0 -4 -20 -26 -45 -49 -25 -24 -45 -47 -45
-53 0 -5 -10 -19 -22 -31 -13 -11 -36 -37 -53 -57 -42 -52 -72 -87 -95 -110
-11 -12 -20 -24 -20 -28 0 -8 -7 -16 -85 -100 -19 -21 -35 -41 -35 -44 0 -3
-12 -20 -27 -38 -50 -57 -63 -75 -58 -75 4 0 -3 -9 -47 -62 -10 -12 -18 -24
-18 -27 0 -3 -11 -19 -25 -36 -25 -31 -29 -36 -91 -117 -20 -27 -41 -48 -47
-48 -5 0 -7 -9 -4 -20 3 -11 1 -20 -3 -20 -12 0 -56 -98 -64 -142 -11 -59 1
-88 35 -88 32 0 36 10 17 40 -10 15 -9 27 1 57 8 21 17 40 20 43 3 3 15 23 26
45 11 22 28 46 37 53 10 7 18 20 18 28 0 8 7 17 15 20 8 4 15 12 15 20 0 7 8
19 18 26 17 13 35 39 49 67 3 8 14 22 22 32 9 10 26 30 38 46 45 59 78 98 88
105 5 4 7 8 3 8 -4 0 6 14 24 30 17 17 27 30 23 30 -4 0 6 14 24 30 17 17 31
34 31 38 0 4 16 22 35 41 19 18 35 37 35 42 0 5 17 27 38 48 33 35 78 85 154
174 15 18 55 62 88 98 34 37 70 79 80 93 9 15 27 34 39 42 11 8 21 19 21 25 0
5 19 29 43 53 61 63 117 127 134 157 8 14 27 33 42 44 15 10 38 33 50 51 12
18 47 58 77 88 30 31 54 59 54 63 0 3 43 48 95 99 52 52 95 97 95 101 0 4 12
18 27 31 l28 24 355 -8 c195 -3 363 -10 372 -15 9 -5 63 -9 120 -9 57 0 173
-5 259 -12 l156 -11 -5 -25 c-5 -24 -4 -25 37 -18 47 7 81 25 81 42 0 44 -108
55 -672 70 -153 4 -278 11 -278 15 0 5 -86 9 -191 9 l-191 0 68 69 c38 37 83
83 100 102 17 19 52 52 78 74 26 22 53 46 61 53 22 20 20 72 -2 72 -10 -1 -23
-6 -29 -13z"/>
<path d="M8080 5227 c-14 -6 -27 -14 -30 -17 -10 -13 -156 -80 -173 -80 -9 0
-17 -4 -17 -10 0 -18 -29 -10 -35 10 -4 12 -15 20 -29 20 -29 0 -86 -20 -86
-29 0 -4 -18 -14 -40 -21 -22 -7 -40 -17 -40 -22 0 -4 -7 -8 -15 -8 -9 0 2 16
25 38 47 44 54 82 16 82 -14 0 -31 -6 -38 -13 -7 -7 -25 -20 -40 -29 -41 -27
-202 -199 -198 -213 1 -4 -6 -12 -15 -19 -25 -18 -15 -50 15 -54 23 -3 35 5
113 73 9 8 21 15 26 15 6 0 16 8 23 18 7 10 34 27 61 37 26 10 47 21 47 25 0
4 18 13 40 20 22 7 40 17 40 22 0 4 7 8 15 8 8 0 15 -4 15 -10 0 -6 27 -10 60
-10 33 0 60 3 60 8 0 4 27 16 60 26 33 11 60 23 60 27 0 9 57 29 86 29 31 0
54 26 54 61 0 32 -16 36 -60 16z"/>
<path d="M4360 5210 c0 -5 -11 -10 -24 -10 -24 0 -87 -19 -96 -29 -3 -3 -23
-15 -44 -26 -22 -11 -62 -43 -90 -72 -70 -72 -78 -82 -71 -93 3 -6 1 -10 -6
-10 -8 0 -10 -14 -6 -49 7 -60 41 -100 91 -108 20 -3 36 -10 36 -14 0 -5 25
-9 55 -9 30 0 55 4 55 8 0 4 48 13 107 20 59 7 110 17 113 21 3 4 44 15 93 25
48 10 87 21 87 25 0 3 29 15 65 25 36 10 65 22 65 26 0 5 23 14 50 21 28 7 50
16 50 19 0 4 27 15 60 25 33 10 60 21 60 25 0 4 18 13 40 20 22 7 40 16 40 20
0 4 9 10 20 13 28 7 25 27 -4 27 -28 0 -86 -19 -86 -29 0 -4 -28 -16 -62 -26
-35 -10 -65 -21 -68 -25 -3 -4 -29 -15 -57 -24 -29 -10 -53 -21 -53 -25 0 -5
-27 -14 -60 -21 -33 -7 -60 -16 -60 -20 0 -4 -39 -16 -87 -26 -49 -10 -90 -21
-93 -25 -9 -12 -147 -30 -249 -32 -96 -2 -102 -1 -123 23 -22 24 -33 80 -16
80 4 0 8 6 8 13 0 14 82 95 125 123 17 10 32 21 35 24 10 11 63 31 68 26 3 -3
-3 -8 -12 -12 -22 -9 -21 -54 2 -54 24 0 70 45 78 76 5 18 1 31 -15 45 -11 11
-21 15 -21 9z"/>
<path d="M9740 5174 c0 -5 -23 -18 -51 -28 -29 -10 -61 -26 -72 -37 -12 -10
-27 -19 -34 -19 -7 0 -13 -4 -13 -9 0 -5 -13 -14 -30 -21 -16 -7 -41 -22 -54
-34 -14 -11 -37 -30 -51 -41 -28 -23 -32 -47 -10 -65 12 -10 24 -10 60 0 25 7
45 16 45 20 0 5 14 13 31 19 17 6 43 21 59 33 68 55 75 59 79 46 2 -6 -1 -14
-7 -16 -19 -6 -15 -109 4 -116 48 -18 231 10 261 40 8 7 29 16 48 20 19 3 35
10 35 14 0 4 23 16 50 26 28 10 50 21 50 24 0 4 19 12 42 19 44 13 68 32 68
52 0 16 -47 6 -113 -25 -28 -14 -64 -28 -79 -31 -16 -4 -28 -10 -28 -15 0 -4
-28 -15 -62 -25 -35 -11 -65 -22 -68 -25 -5 -6 -61 -22 -116 -33 -12 -2 -29 0
-38 5 -17 9 -23 48 -7 48 5 0 13 12 19 28 5 15 21 41 36 57 32 37 34 65 4 65
-12 0 -30 7 -40 17 -10 9 -18 12 -18 7z"/>
<path d="M3318 5139 c-34 -13 -137 -116 -144 -146 -4 -13 -10 -23 -15 -23 -5
0 -9 -13 -9 -30 0 -23 5 -31 25 -36 14 -3 25 -10 25 -15 0 -5 9 -9 20 -9 11 0
20 4 20 8 0 4 41 16 90 26 50 10 90 22 90 26 0 4 20 14 45 21 25 7 45 17 45
20 0 4 23 15 50 24 28 9 50 20 50 24 0 3 20 13 45 20 25 7 45 17 45 22 0 5 7
9 15 9 8 0 15 7 15 16 0 22 -50 14 -121 -20 -30 -13 -66 -28 -81 -31 -16 -4
-28 -10 -28 -15 0 -4 -28 -15 -62 -25 -35 -11 -65 -22 -68 -26 -16 -22 -150
-38 -150 -18 0 10 40 50 115 114 20 18 35 39 35 53 0 24 -10 26 -52 11z"/>
<path d="M8771 5137 c-13 -6 -46 -35 -75 -64 -70 -72 -78 -82 -71 -93 3 -6 1
-10 -4 -10 -6 0 -11 -13 -11 -29 0 -21 6 -32 20 -36 11 -3 20 -11 20 -16 0 -5
11 -9 25 -9 14 0 25 4 25 8 0 5 30 14 67 21 37 7 90 23 118 37 29 13 59 24 68
24 10 0 17 4 17 9 0 5 23 17 50 27 28 10 50 21 50 25 0 3 20 12 45 19 25 7 45
17 45 21 0 5 7 9 15 9 8 0 15 7 15 15 0 8 -7 15 -15 15 -26 0 -105 -24 -105
-32 0 -4 -25 -15 -55 -23 -30 -9 -55 -19 -55 -23 0 -4 -29 -16 -65 -27 -36
-10 -65 -22 -65 -26 0 -9 -112 -31 -141 -27 -23 3 -21 5 27 53 28 28 65 62 82
77 55 48 36 85 -27 55z"/>
<path d="M6388 5089 c-26 -28 -53 -66 -60 -85 -6 -19 -16 -34 -20 -34 -4 0 -8
-13 -8 -30 0 -16 5 -30 10 -30 6 0 10 -7 10 -15 0 -10 10 -15 30 -15 17 0 30
5 30 10 0 6 9 10 20 10 33 0 86 26 125 62 l37 33 151 1 c144 1 287 17 287 33
0 4 25 14 55 21 47 11 55 16 55 37 0 12 -3 23 -7 23 -12 0 -78 -25 -83 -31 -8
-10 -145 -39 -184 -39 -19 0 -38 -4 -41 -10 -3 -5 -28 -10 -56 -10 -27 0 -49
5 -49 10 0 6 -13 10 -29 10 -57 0 -79 15 -83 57 l-3 38 -70 2 -70 2 -47 -50z"/>
<path d="M6003 4408 c3 -29 9 -92 13 -140 4 -49 10 -88 14 -88 4 0 10 -39 14
-87 4 -49 9 -103 12 -120 l6 -33 83 0 c97 0 89 -10 101 138 3 50 11 92 16 92
6 0 8 22 6 50 -1 28 0 51 3 53 4 1 10 44 14 95 l7 93 -48 -3 -49 -3 -9 -95
c-4 -52 -12 -97 -16 -100 -4 -3 -12 -48 -17 -100 -8 -75 -10 -84 -11 -42 -1
28 -5 52 -9 52 -5 0 -6 22 -5 50 2 29 0 50 -6 50 -6 0 -13 43 -17 95 l-7 95
-51 0 -50 0 6 -52z"/>
<path d="M6610 4200 l0 -260 45 0 45 0 0 260 0 260 -45 0 -45 0 0 -260z"/>
<path d="M7020 4200 l0 -260 115 0 115 0 0 50 0 49 -67 3 -68 3 -3 208 -2 207
-45 0 -45 0 0 -260z"/>
<path d="M7550 4200 l0 -260 115 0 115 0 0 50 0 50 -64 0 c-49 0 -65 4 -70 16
-3 9 -6 103 -6 210 l0 194 -45 0 -45 0 0 -260z"/>
<path d="M8186 4443 c-3 -10 -8 -44 -12 -75 -3 -32 -10 -58 -14 -58 -4 0 -13
-43 -20 -95 -7 -52 -16 -95 -20 -95 -6 0 -30 -135 -30 -167 0 -9 17 -13 49
-13 l49 0 7 50 7 50 38 0 c41 0 50 -11 50 -60 0 -32 14 -40 76 -40 32 0 44 4
44 15 0 8 -4 15 -9 15 -4 0 -16 51 -26 113 -10 61 -21 114 -25 117 -4 3 -15
57 -25 120 -11 63 -25 121 -31 128 -7 6 -33 12 -58 12 -34 0 -46 -4 -50 -17z"/>
<path d="M8839 4450 c-30 -9 -82 -58 -74 -70 3 -4 0 -10 -5 -12 -17 -5 -29
-75 -30 -160 0 -81 17 -178 32 -178 5 0 7 -4 4 -9 -3 -4 11 -23 31 -42 30 -27
45 -33 82 -33 50 0 92 29 105 72 4 12 11 22 16 22 10 0 30 113 30 173 l0 47
-70 0 -70 0 0 -50 c0 -43 3 -50 20 -50 13 0 20 -7 20 -19 0 -25 -16 -68 -32
-84 -21 -23 -57 18 -64 75 -4 26 -10 48 -13 48 -4 0 -7 9 -7 20 0 11 3 20 7
20 3 0 9 22 13 49 10 78 63 117 81 60 7 -22 37 -18 63 7 7 8 18 14 23 14 34 0
-28 82 -75 100 -31 11 -50 12 -87 0z"/>
<path d="M9340 4200 l0 -260 120 0 120 0 0 50 0 50 -70 0 c-79 0 -84 6 -78 91
l3 44 53 3 52 3 0 44 0 44 -52 3 -53 3 -3 43 -3 42 75 0 76 0 0 50 0 50 -120
0 -120 0 0 -260z"/>
</g>
</svg>
